<svg width="275" height="176" viewBox="0 0 275 176" fill="none" xmlns="http://www.w3.org/2000/svg">
<path d="M14.6345 175.12L12.2945 171.974C11.6011 172.113 10.9251 172.182 10.2665 172.182C8.55046 172.182 6.97313 171.783 5.53446 170.986C4.11313 170.189 2.97779 169.079 2.12846 167.658C1.29646 166.219 0.880461 164.607 0.880461 162.822C0.880461 161.037 1.29646 159.433 2.12846 158.012C2.97779 156.591 4.11313 155.481 5.53446 154.684C6.97313 153.887 8.55046 153.488 10.2665 153.488C11.9825 153.488 13.5511 153.887 14.9725 154.684C16.4111 155.481 17.5378 156.591 18.3525 158.012C19.1845 159.433 19.6005 161.037 19.6005 162.822C19.6005 164.382 19.2798 165.812 18.6385 167.112C18.0145 168.395 17.1391 169.461 16.0125 170.31L20.0165 175.12H14.6345ZM5.43046 162.822C5.43046 164.434 5.86379 165.725 6.73046 166.696C7.61446 167.649 8.79313 168.126 10.2665 168.126C11.7225 168.126 12.8838 167.641 13.7505 166.67C14.6345 165.699 15.0765 164.417 15.0765 162.822C15.0765 161.21 14.6345 159.927 13.7505 158.974C12.8838 158.003 11.7225 157.518 10.2665 157.518C8.79313 157.518 7.61446 157.995 6.73046 158.948C5.86379 159.901 5.43046 161.193 5.43046 162.822ZM26.4927 153.748V164.668C26.4927 165.76 26.7614 166.601 27.2987 167.19C27.836 167.779 28.6247 168.074 29.6647 168.074C30.7047 168.074 31.502 167.779 32.0567 167.19C32.6114 166.601 32.8887 165.76 32.8887 164.668V153.748H37.3347V164.642C37.3347 166.271 36.988 167.649 36.2947 168.776C35.6014 169.903 34.6654 170.752 33.4867 171.324C32.3254 171.896 31.0254 172.182 29.5867 172.182C28.148 172.182 26.8567 171.905 25.7127 171.35C24.586 170.778 23.6934 169.929 23.0347 168.802C22.376 167.658 22.0467 166.271 22.0467 164.642V153.748H26.4927ZM51.8187 168.776H45.0067L43.9147 172H39.2607L45.8647 153.748H51.0127L57.6167 172H52.9107L51.8187 168.776ZM50.6747 165.344L48.4127 158.662L46.1767 165.344H50.6747ZM68.9346 172L65.1386 165.11H64.0726V172H59.6266V153.748H67.0886C68.5273 153.748 69.7493 153.999 70.7546 154.502C71.7773 155.005 72.54 155.698 73.0426 156.582C73.5453 157.449 73.7966 158.419 73.7966 159.494C73.7966 160.707 73.45 161.791 72.7566 162.744C72.0806 163.697 71.0753 164.373 69.7406 164.772L73.9526 172H68.9346ZM64.0726 161.964H66.8286C67.6433 161.964 68.25 161.765 68.6486 161.366C69.0646 160.967 69.2726 160.404 69.2726 159.676C69.2726 158.983 69.0646 158.437 68.6486 158.038C68.25 157.639 67.6433 157.44 66.8286 157.44H64.0726V161.964ZM89.7176 153.748V157.31H84.8816V172H80.4356V157.31H75.5996V153.748H89.7176ZM100.581 172.182C98.8649 172.182 97.2876 171.783 95.8489 170.986C94.4276 170.189 93.2922 169.079 92.4429 167.658C91.6109 166.219 91.1949 164.607 91.1949 162.822C91.1949 161.037 91.6109 159.433 92.4429 158.012C93.2922 156.591 94.4276 155.481 95.8489 154.684C97.2876 153.887 98.8649 153.488 100.581 153.488C102.297 153.488 103.866 153.887 105.287 154.684C106.726 155.481 107.852 156.591 108.667 158.012C109.499 159.433 109.915 161.037 109.915 162.822C109.915 164.607 109.499 166.219 108.667 167.658C107.835 169.079 106.708 170.189 105.287 170.986C103.866 171.783 102.297 172.182 100.581 172.182ZM100.581 168.126C102.037 168.126 103.198 167.641 104.065 166.67C104.949 165.699 105.391 164.417 105.391 162.822C105.391 161.21 104.949 159.927 104.065 158.974C103.198 158.003 102.037 157.518 100.581 157.518C99.1076 157.518 97.9289 157.995 97.0449 158.948C96.1782 159.901 95.7449 161.193 95.7449 162.822C95.7449 164.434 96.1782 165.725 97.0449 166.696C97.9289 167.649 99.1076 168.126 100.581 168.126ZM124.736 153.748C126.66 153.748 128.341 154.129 129.78 154.892C131.219 155.655 132.328 156.729 133.108 158.116C133.905 159.485 134.304 161.071 134.304 162.874C134.304 164.659 133.905 166.245 133.108 167.632C132.328 169.019 131.21 170.093 129.754 170.856C128.315 171.619 126.643 172 124.736 172H117.898V153.748H124.736ZM124.45 168.152C126.131 168.152 127.44 167.693 128.376 166.774C129.312 165.855 129.78 164.555 129.78 162.874C129.78 161.193 129.312 159.884 128.376 158.948C127.44 158.012 126.131 157.544 124.45 157.544H122.344V168.152H124.45ZM145.421 172.182C143.705 172.182 142.127 171.783 140.689 170.986C139.267 170.189 138.132 169.079 137.283 167.658C136.451 166.219 136.035 164.607 136.035 162.822C136.035 161.037 136.451 159.433 137.283 158.012C138.132 156.591 139.267 155.481 140.689 154.684C142.127 153.887 143.705 153.488 145.421 153.488C147.137 153.488 148.705 153.887 150.127 154.684C151.565 155.481 152.692 156.591 153.507 158.012C154.339 159.433 154.755 161.037 154.755 162.822C154.755 164.607 154.339 166.219 153.507 167.658C152.675 169.079 151.548 170.189 150.127 170.986C148.705 171.783 147.137 172.182 145.421 172.182ZM145.421 168.126C146.877 168.126 148.038 167.641 148.905 166.67C149.789 165.699 150.231 164.417 150.231 162.822C150.231 161.21 149.789 159.927 148.905 158.974C148.038 158.003 146.877 157.518 145.421 157.518C143.947 157.518 142.769 157.995 141.885 158.948C141.018 159.901 140.585 161.193 140.585 162.822C140.585 164.434 141.018 165.725 141.885 166.696C142.769 167.649 143.947 168.126 145.421 168.126ZM179.872 153.748L173.398 172H167.834L161.36 153.748H166.092L170.616 167.528L175.166 153.748H179.872ZM186.176 157.31V161.002H192.13V164.434H186.176V168.438H192.91V172H181.73V153.748H192.91V157.31H186.176ZM207.913 159.52C207.583 158.913 207.107 158.454 206.483 158.142C205.876 157.813 205.157 157.648 204.325 157.648C202.886 157.648 201.733 158.125 200.867 159.078C200 160.014 199.567 161.271 199.567 162.848C199.567 164.529 200.017 165.847 200.919 166.8C201.837 167.736 203.094 168.204 204.689 168.204C205.781 168.204 206.699 167.927 207.445 167.372C208.207 166.817 208.762 166.02 209.109 164.98H203.467V161.704H213.139V165.838C212.809 166.947 212.246 167.979 211.449 168.932C210.669 169.885 209.672 170.657 208.459 171.246C207.245 171.835 205.876 172.13 204.351 172.13C202.548 172.13 200.936 171.74 199.515 170.96C198.111 170.163 197.01 169.062 196.213 167.658C195.433 166.254 195.043 164.651 195.043 162.848C195.043 161.045 195.433 159.442 196.213 158.038C197.01 156.617 198.111 155.516 199.515 154.736C200.919 153.939 202.522 153.54 204.325 153.54C206.509 153.54 208.346 154.069 209.837 155.126C211.345 156.183 212.341 157.648 212.827 159.52H207.913ZM220.047 157.31V161.002H226.001V164.434H220.047V168.438H226.781V172H215.601V153.748H226.781V157.31H220.047ZM242.798 153.748V157.31H237.962V172H233.516V157.31H228.68V153.748H242.798ZM256.391 168.776H249.579L248.487 172H243.833L250.437 153.748H255.585L262.189 172H257.483L256.391 168.776ZM255.247 165.344L252.985 158.662L250.749 165.344H255.247ZM268.645 168.568H274.469V172H264.199V153.748H268.645V168.568Z" fill="#1E5959"/>
<g clip-path="url(#clip0_2027_58)">
<path d="M194.75 38.0664L192.299 32.1398C190.993 28.9815 188.391 26.5273 185.234 25.3565V17.2496C185.234 13.5903 182.587 8.38603 169.975 4.37277C161.114 1.55302 149.384 0 136.948 0C124.512 0 112.782 1.55302 103.92 4.37305C91.3089 8.3863 88.6616 13.5906 88.6616 17.2496V24.6015H84.3894C82.5283 24.6015 80.7995 25.5253 79.7652 27.0728C78.7308 28.6203 78.5382 30.571 79.2498 32.2909L81.7023 38.2175C83.021 41.404 85.5663 43.8043 88.6622 44.9704V82.8654C88.6622 86.5247 91.3095 91.729 103.921 95.742C112.783 98.562 124.512 100.115 136.949 100.115C149.385 100.115 161.114 98.562 169.976 95.742C182.587 91.729 185.235 86.5247 185.235 82.8654V45.7549H189.611C191.473 45.7549 193.202 44.8314 194.236 43.2845C195.269 41.7373 195.462 39.7866 194.75 38.0664ZM105.596 9.6395C113.931 6.98748 125.065 5.52676 136.948 5.52676C148.831 5.52676 159.965 6.98748 168.3 9.6395C176.72 12.3189 179.707 15.4136 179.707 17.2496C179.707 18.2471 178.822 19.6164 176.666 21.0887C167.95 16.724 152.984 14.0476 136.948 14.0476C120.912 14.0476 105.946 16.724 97.2297 21.0887C95.0735 19.6164 94.1886 18.2471 94.1886 17.2496C94.1884 15.4136 97.1761 12.3191 105.596 9.6395ZM170.046 24.2697C169.49 24.4681 168.911 24.6651 168.299 24.8596C159.965 27.5119 148.831 28.9724 136.948 28.9724C125.065 28.9724 113.931 27.5117 105.596 24.8596C104.985 24.6651 104.405 24.4681 103.85 24.2697C112.05 21.3225 124.066 19.5744 136.947 19.5744C149.829 19.5744 161.846 21.3225 170.046 24.2697ZM86.8088 36.1044L84.3507 30.1637C84.3521 30.1534 84.3654 30.1338 84.3894 30.1286H88.6616V38.6448C87.8685 37.9716 87.2255 37.1114 86.8088 36.1044ZM168.299 90.4755C159.965 93.1278 148.831 94.5883 136.948 94.5883C125.065 94.5883 113.931 93.1275 105.596 90.4755C97.1758 87.7962 94.1881 84.7014 94.1881 82.8654V45.7549H102.294C103.82 45.7549 105.057 44.5178 105.057 42.9916C105.057 41.4653 103.82 40.2282 102.294 40.2282H94.1884V25.7019C96.4632 27.2431 99.6087 28.7543 103.92 30.1264C112.782 32.9464 124.512 34.4994 136.948 34.4994C149.384 34.4994 161.114 32.9464 169.975 30.1264C174.287 28.7543 177.433 27.2431 179.707 25.7019V82.8654C179.707 84.7014 176.72 87.7962 168.299 90.4755ZM189.61 40.2282H185.234V31.6343C186.082 32.3246 186.765 33.2183 187.192 34.2515L189.649 40.1939C189.648 40.2036 189.635 40.2226 189.61 40.2282Z" fill="#1E5959" stroke="#1E5959" stroke-width="0.00064"/>
<path d="M119.636 103.456C119.118 102.938 118.415 102.647 117.682 102.647C116.949 102.647 116.246 102.938 115.728 103.456L111.093 108.091C109.333 109.851 108.363 112.192 108.363 114.681C108.363 117.17 109.333 119.51 111.093 121.27C112.853 123.03 115.193 123.999 117.682 123.999C120.172 123.999 122.512 123.03 124.272 121.27C126.032 119.51 127.001 117.17 127.001 114.681C127.001 112.191 126.032 109.851 124.272 108.091L119.636 103.456ZM120.364 117.363C119.648 118.079 118.695 118.473 117.683 118.473C116.67 118.473 115.717 118.079 115.001 117.362C114.285 116.646 113.89 115.694 113.89 114.681C113.89 113.668 114.285 112.716 115.001 111.999L117.682 109.318L120.364 111.999C121.08 112.716 121.475 113.668 121.475 114.681C121.475 115.694 121.08 116.646 120.364 117.363Z" fill="#1E5959" stroke="#1E5959" stroke-width="0.00064"/>
<path d="M138.902 103.456C137.823 102.377 136.073 102.377 134.994 103.456L130.359 108.092C128.599 109.852 127.629 112.192 127.629 114.681C127.629 117.17 128.599 119.511 130.359 121.271C132.175 123.088 134.561 123.996 136.948 123.996C139.334 123.996 141.721 123.087 143.538 121.271C145.298 119.511 146.267 117.17 146.267 114.681C146.267 112.192 145.298 109.852 143.538 108.092L138.902 103.456ZM139.629 117.362C138.151 118.841 135.745 118.841 134.266 117.362C133.55 116.646 133.155 115.694 133.155 114.681C133.155 113.668 133.55 112.716 134.266 111.999L136.948 109.318L139.629 111.999C140.346 112.716 140.74 113.668 140.74 114.681C140.74 115.694 140.346 116.646 139.629 117.362Z" fill="#1E5959" stroke="#1E5959" stroke-width="0.00064"/>
<path d="M158.167 103.456C157.649 102.938 156.946 102.647 156.214 102.647C155.481 102.647 154.778 102.938 154.26 103.456L149.624 108.091C147.864 109.851 146.895 112.192 146.895 114.681C146.895 117.17 147.864 119.51 149.624 121.27C151.384 123.03 153.725 123.999 156.214 123.999C158.703 123.999 161.043 123.03 162.803 121.27C164.563 119.51 165.533 117.17 165.533 114.681C165.533 112.191 164.563 109.851 162.803 108.091L158.167 103.456ZM158.895 117.363C158.179 118.079 157.227 118.473 156.214 118.473C155.2 118.473 154.248 118.079 153.532 117.362C152.816 116.646 152.421 115.694 152.421 114.681C152.421 113.668 152.816 112.716 153.532 111.999L156.214 109.318L158.895 112C159.611 112.716 160.006 113.668 160.006 114.681C160.006 115.694 159.611 116.646 158.895 117.363Z" fill="#1E5959" stroke="#1E5959" stroke-width="0.00064"/>
</g>
<defs>
<clipPath id="clip0_2027_58">
<rect width="124" height="124" fill="white" transform="translate(75)"/>
</clipPath>
</defs>
</svg>
