<svg width="264" height="72" viewBox="0 0 264 72" fill="none" xmlns="http://www.w3.org/2000/svg">
<g filter="url(#filter0_d_2028_71)">
<path d="M110.612 32.12L108.272 28.974C107.579 29.1127 106.903 29.182 106.244 29.182C104.528 29.182 102.951 28.7833 101.512 27.986C100.091 27.1887 98.9553 26.0793 98.106 24.658C97.274 23.2193 96.858 21.6073 96.858 19.822C96.858 18.0367 97.274 16.4333 98.106 15.012C98.9553 13.5907 100.091 12.4813 101.512 11.684C102.951 10.8867 104.528 10.488 106.244 10.488C107.96 10.488 109.529 10.8867 110.95 11.684C112.389 12.4813 113.515 13.5907 114.33 15.012C115.162 16.4333 115.578 18.0367 115.578 19.822C115.578 21.382 115.257 22.812 114.616 24.112C113.992 25.3947 113.117 26.4607 111.99 27.31L115.994 32.12H110.612ZM101.408 19.822C101.408 21.434 101.841 22.7253 102.708 23.696C103.592 24.6493 104.771 25.126 106.244 25.126C107.7 25.126 108.861 24.6407 109.728 23.67C110.612 22.6993 111.054 21.4167 111.054 19.822C111.054 18.21 110.612 16.9273 109.728 15.974C108.861 15.0033 107.7 14.518 106.244 14.518C104.771 14.518 103.592 14.9947 102.708 15.948C101.841 16.9013 101.408 18.1927 101.408 19.822ZM122.47 10.748V21.668C122.47 22.76 122.739 23.6007 123.276 24.19C123.814 24.7793 124.602 25.074 125.642 25.074C126.682 25.074 127.48 24.7793 128.034 24.19C128.589 23.6007 128.866 22.76 128.866 21.668V10.748H133.312V21.642C133.312 23.2713 132.966 24.6493 132.272 25.776C131.579 26.9027 130.643 27.752 129.464 28.324C128.303 28.896 127.003 29.182 125.564 29.182C124.126 29.182 122.834 28.9047 121.69 28.35C120.564 27.778 119.671 26.9287 119.012 25.802C118.354 24.658 118.024 23.2713 118.024 21.642V10.748H122.47ZM147.796 25.776H140.984L139.892 29H135.238L141.842 10.748H146.99L153.594 29H148.888L147.796 25.776ZM146.652 22.344L144.39 15.662L142.154 22.344H146.652ZM164.912 29L161.116 22.11H160.05V29H155.604V10.748H163.066C164.505 10.748 165.727 10.9993 166.732 11.502C167.755 12.0047 168.518 12.698 169.02 13.582C169.523 14.4487 169.774 15.4193 169.774 16.494C169.774 17.7073 169.428 18.7907 168.734 19.744C168.058 20.6973 167.053 21.3733 165.718 21.772L169.93 29H164.912ZM160.05 18.964H162.806C163.621 18.964 164.228 18.7647 164.626 18.366C165.042 17.9673 165.25 17.404 165.25 16.676C165.25 15.9827 165.042 15.4367 164.626 15.038C164.228 14.6393 163.621 14.44 162.806 14.44H160.05V18.964ZM185.695 10.748V14.31H180.859V29H176.413V14.31H171.577V10.748H185.695ZM196.558 29.182C194.842 29.182 193.265 28.7833 191.826 27.986C190.405 27.1887 189.27 26.0793 188.42 24.658C187.588 23.2193 187.172 21.6073 187.172 19.822C187.172 18.0367 187.588 16.4333 188.42 15.012C189.27 13.5907 190.405 12.4813 191.826 11.684C193.265 10.8867 194.842 10.488 196.558 10.488C198.274 10.488 199.843 10.8867 201.264 11.684C202.703 12.4813 203.83 13.5907 204.644 15.012C205.476 16.4333 205.892 18.0367 205.892 19.822C205.892 21.6073 205.476 23.2193 204.644 24.658C203.812 26.0793 202.686 27.1887 201.264 27.986C199.843 28.7833 198.274 29.182 196.558 29.182ZM196.558 25.126C198.014 25.126 199.176 24.6407 200.042 23.67C200.926 22.6993 201.368 21.4167 201.368 19.822C201.368 18.21 200.926 16.9273 200.042 15.974C199.176 15.0033 198.014 14.518 196.558 14.518C195.085 14.518 193.906 14.9947 193.022 15.948C192.156 16.9013 191.722 18.1927 191.722 19.822C191.722 21.434 192.156 22.7253 193.022 23.696C193.906 24.6493 195.085 25.126 196.558 25.126ZM104.45 42.748C106.374 42.748 108.055 43.1293 109.494 43.892C110.933 44.6547 112.042 45.7293 112.822 47.116C113.619 48.4853 114.018 50.0713 114.018 51.874C114.018 53.6593 113.619 55.2453 112.822 56.632C112.042 58.0187 110.924 59.0933 109.468 59.856C108.029 60.6187 106.357 61 104.45 61H97.612V42.748H104.45ZM104.164 57.152C105.845 57.152 107.154 56.6927 108.09 55.774C109.026 54.8553 109.494 53.5553 109.494 51.874C109.494 50.1927 109.026 48.884 108.09 47.948C107.154 47.012 105.845 46.544 104.164 46.544H102.058V57.152H104.164ZM125.135 61.182C123.419 61.182 121.841 60.7833 120.403 59.986C118.981 59.1887 117.846 58.0793 116.997 56.658C116.165 55.2193 115.749 53.6073 115.749 51.822C115.749 50.0367 116.165 48.4333 116.997 47.012C117.846 45.5907 118.981 44.4813 120.403 43.684C121.841 42.8867 123.419 42.488 125.135 42.488C126.851 42.488 128.419 42.8867 129.841 43.684C131.279 44.4813 132.406 45.5907 133.221 47.012C134.053 48.4333 134.469 50.0367 134.469 51.822C134.469 53.6073 134.053 55.2193 133.221 56.658C132.389 58.0793 131.262 59.1887 129.841 59.986C128.419 60.7833 126.851 61.182 125.135 61.182ZM125.135 57.126C126.591 57.126 127.752 56.6407 128.619 55.67C129.503 54.6993 129.945 53.4167 129.945 51.822C129.945 50.21 129.503 48.9273 128.619 47.974C127.752 47.0033 126.591 46.518 125.135 46.518C123.661 46.518 122.483 46.9947 121.599 47.948C120.732 48.9013 120.299 50.1927 120.299 51.822C120.299 53.434 120.732 54.7253 121.599 55.696C122.483 56.6493 123.661 57.126 125.135 57.126ZM159.586 42.748L153.112 61H147.548L141.074 42.748H145.806L150.33 56.528L154.88 42.748H159.586ZM165.89 46.31V50.002H171.844V53.434H165.89V57.438H172.624V61H161.444V42.748H172.624V46.31H165.89ZM187.626 48.52C187.297 47.9133 186.82 47.454 186.196 47.142C185.59 46.8127 184.87 46.648 184.038 46.648C182.6 46.648 181.447 47.1247 180.58 48.078C179.714 49.014 179.28 50.2707 179.28 51.848C179.28 53.5293 179.731 54.8467 180.632 55.8C181.551 56.736 182.808 57.204 184.402 57.204C185.494 57.204 186.413 56.9267 187.158 56.372C187.921 55.8173 188.476 55.02 188.822 53.98H183.18V50.704H192.852V54.838C192.523 55.9473 191.96 56.9787 191.162 57.932C190.382 58.8853 189.386 59.6567 188.172 60.246C186.959 60.8353 185.59 61.13 184.064 61.13C182.262 61.13 180.65 60.74 179.228 59.96C177.824 59.1627 176.724 58.062 175.926 56.658C175.146 55.254 174.756 53.6507 174.756 51.848C174.756 50.0453 175.146 48.442 175.926 47.038C176.724 45.6167 177.824 44.516 179.228 43.736C180.632 42.9387 182.236 42.54 184.038 42.54C186.222 42.54 188.06 43.0687 189.55 44.126C191.058 45.1833 192.055 46.648 192.54 48.52H187.626ZM199.761 46.31V50.002H205.715V53.434H199.761V57.438H206.495V61H195.315V42.748H206.495V46.31H199.761ZM222.512 42.748V46.31H217.676V61H213.23V46.31H208.394V42.748H222.512ZM236.105 57.776H229.293L228.201 61H223.547L230.151 42.748H235.299L241.903 61H237.197L236.105 57.776ZM234.961 54.344L232.699 47.662L230.463 54.344H234.961ZM248.359 57.568H254.183V61H243.913V42.748H248.359V57.568Z" fill="#1E5959"/>
</g>
<g clip-path="url(#clip0_2028_71)">
<g filter="url(#filter1_d_2028_71)">
<path d="M69.5324 22.1031L68.109 18.6618C67.3508 16.828 65.8398 15.403 64.007 14.7231V10.0159C64.007 7.89114 62.4698 4.86931 55.147 2.53903C50.0015 0.901753 43.1908 0 35.9698 0C28.7487 0 21.9381 0.901753 16.7925 2.53919C9.46968 4.86947 7.93253 7.8913 7.93253 10.0159V14.2848H5.45191C4.37125 14.2848 3.36745 14.8212 2.76687 15.7197C2.16629 16.6182 2.05445 17.7509 2.46762 18.7496L3.89165 22.1908C4.65734 24.041 6.13528 25.4347 7.93285 26.1118V48.1154C7.93285 50.2402 9.47 53.262 16.7928 55.5921C21.9384 57.2295 28.7491 58.1313 35.9701 58.1313C43.1911 58.1313 50.0019 57.2295 55.1473 55.5921C62.4701 53.262 64.0073 50.2402 64.0073 48.1154V26.5674H66.5482C67.6292 26.5674 68.6332 26.0311 69.2336 25.1329C69.8339 24.2345 69.9455 23.1019 69.5324 22.1031ZM17.7656 5.59713C22.6049 4.05725 29.07 3.20909 35.9698 3.20909C42.8697 3.20909 49.3345 4.05725 54.174 5.59713C59.0632 7.15289 60.7979 8.94982 60.7979 10.0159C60.7979 10.5951 60.2839 11.3902 59.0319 12.2451C53.9712 9.71069 45.281 8.15669 35.9697 8.15669C26.6585 8.15669 17.9685 9.71069 12.9076 12.2451C11.6556 11.3902 11.1418 10.5951 11.1418 10.0159C11.1416 8.94982 12.8764 7.15305 17.7656 5.59713ZM55.1878 14.0921C54.8654 14.2073 54.5289 14.3217 54.1738 14.4346C49.3345 15.9747 42.8695 16.8227 35.9697 16.8227C29.0698 16.8227 22.6049 15.9745 17.7655 14.4346C17.4104 14.3217 17.0739 14.2073 16.7514 14.0921C21.5127 12.3808 28.4898 11.3658 35.9693 11.3658C43.4492 11.3658 50.4264 12.3808 55.1878 14.0921ZM6.85669 20.9638L5.42945 17.5144C5.43025 17.5084 5.43795 17.4971 5.45191 17.494H7.93253V22.4389C7.47203 22.048 7.09865 21.5485 6.85669 20.9638ZM54.1738 52.5342C49.3345 54.0742 42.8695 54.9222 35.9697 54.9222C29.0698 54.9222 22.6049 54.0741 17.7655 52.5342C12.8763 50.9784 11.1415 49.1815 11.1415 48.1154V26.5674H15.8481C16.7342 26.5674 17.4526 25.849 17.4526 24.9628C17.4526 24.0766 16.7342 23.3583 15.8481 23.3583H11.1416V14.9237C12.4625 15.8185 14.2889 16.6961 16.7925 17.4927C21.9381 19.1302 28.7487 20.0319 35.9698 20.0319C43.1908 20.0319 50.0015 19.1302 55.147 17.4927C57.6506 16.6961 59.477 15.8185 60.7979 14.9237V48.1154C60.7979 49.1815 59.063 50.9784 54.1738 52.5342ZM66.5479 23.3583H64.007V18.3683C64.4992 18.7691 64.8956 19.288 65.1436 19.888L66.5705 23.3384C66.5696 23.344 66.5622 23.3551 66.5479 23.3583Z" fill="#1E5959" stroke="#1E5959" stroke-width="0.00064"/>
<path d="M25.9179 60.0712C25.617 59.7703 25.2088 59.6012 24.7833 59.6012C24.3578 59.6012 23.9496 59.7703 23.6487 60.0712L20.9573 62.7627C19.9352 63.7846 19.3723 65.1435 19.3723 66.5889C19.3723 68.0342 19.9352 69.3931 20.9571 70.4149C21.979 71.437 23.3379 71.9997 24.7833 71.9997C26.2287 71.9997 27.5875 71.4368 28.6093 70.4149C29.6314 69.3929 30.1941 68.0341 30.1941 66.5887C30.1941 65.1433 29.6312 63.7844 28.6093 62.7625L25.9179 60.0712ZM26.3403 68.1461C25.9244 68.562 25.3715 68.7909 24.7834 68.7909C24.1952 68.7909 23.6423 68.562 23.2264 68.1459C22.8105 67.73 22.5814 67.1771 22.5814 66.589C22.5814 66.0009 22.8105 65.4479 23.2264 65.032L24.7833 63.4749L26.3403 65.032C26.7562 65.4479 26.9852 66.0008 26.9852 66.589C26.9852 67.1772 26.7562 67.73 26.3403 68.1461Z" fill="#1E5959" stroke="#1E5959" stroke-width="0.00064"/>
<path d="M37.1044 60.0712C36.478 59.4446 35.4618 59.4446 34.8353 60.0712L32.1438 62.7628C31.1217 63.7847 30.5588 65.1436 30.5588 66.589C30.5588 68.0344 31.1217 69.3933 32.1436 70.4152C33.1986 71.4702 34.584 71.9974 35.9698 71.9974C37.3554 71.9974 38.7412 71.4699 39.796 70.4152C40.818 69.3933 41.3808 68.0344 41.3808 66.589C41.3808 65.1436 40.818 63.7847 39.796 62.7628L37.1044 60.0712ZM37.5267 68.1459C36.6683 69.0046 35.2712 69.0045 34.4126 68.1459C33.9967 67.73 33.7676 67.1771 33.7676 66.589C33.7676 66.0009 33.9967 65.4479 34.4126 65.032L35.9697 63.4749L37.5267 65.032C37.9428 65.4479 38.1718 66.0008 38.1718 66.589C38.1718 67.1772 37.9428 67.73 37.5267 68.1459Z" fill="#1E5959" stroke="#1E5959" stroke-width="0.00064"/>
<path d="M48.2908 60.0712C47.9898 59.7703 47.5818 59.6012 47.1562 59.6012C46.7307 59.6012 46.3227 59.7703 46.0217 60.0712L43.3302 62.7627C42.3083 63.7846 41.7454 65.1435 41.7454 66.5889C41.7454 68.0342 42.3083 69.3931 43.3302 70.4149C44.3521 71.437 45.711 71.9997 47.1564 71.9997C48.6018 71.9997 49.9606 71.4368 50.9826 70.4149C52.0045 69.3929 52.5674 68.0341 52.5674 66.5887C52.5674 65.1433 52.0045 63.7844 50.9826 62.7625L48.2908 60.0712ZM48.7131 68.1461C48.2972 68.562 47.7445 68.7909 47.1562 68.7909C46.568 68.7909 46.0152 68.562 45.5993 68.1459C45.1833 67.73 44.9543 67.1771 44.9543 66.589C44.9543 66.0009 45.1833 65.4479 45.5993 65.032L47.1562 63.4751L48.7131 65.0321C49.1292 65.448 49.3581 66.0009 49.3581 66.5892C49.3581 67.1774 49.1292 67.73 48.7131 68.1461Z" fill="#1E5959" stroke="#1E5959" stroke-width="0.00064"/>
</g>
</g>
<defs>
<filter id="filter0_d_2028_71" x="88.858" y="3.48801" width="173.325" height="66.694" filterUnits="userSpaceOnUse" color-interpolation-filters="sRGB">
<feFlood flood-opacity="0" result="BackgroundImageFix"/>
<feColorMatrix in="SourceAlpha" type="matrix" values="0 0 0 0 0 0 0 0 0 0 0 0 0 0 0 0 0 0 127 0" result="hardAlpha"/>
<feOffset dy="1"/>
<feGaussianBlur stdDeviation="4"/>
<feComposite in2="hardAlpha" operator="out"/>
<feColorMatrix type="matrix" values="0 0 0 0 0 0 0 0 0 0 0 0 0 0 0 0 0 0 0.1 0"/>
<feBlend mode="normal" in2="BackgroundImageFix" result="effect1_dropShadow_2028_71"/>
<feBlend mode="normal" in="SourceGraphic" in2="effect1_dropShadow_2028_71" result="shape"/>
</filter>
<filter id="filter1_d_2028_71" x="-259.834" y="-7.00031" width="337.612" height="367.279" filterUnits="userSpaceOnUse" color-interpolation-filters="sRGB">
<feFlood flood-opacity="0" result="BackgroundImageFix"/>
<feColorMatrix in="SourceAlpha" type="matrix" values="0 0 0 0 0 0 0 0 0 0 0 0 0 0 0 0 0 0 127 0" result="hardAlpha"/>
<feOffset dy="1"/>
<feGaussianBlur stdDeviation="4"/>
<feComposite in2="hardAlpha" operator="out"/>
<feColorMatrix type="matrix" values="0 0 0 0 0 0 0 0 0 0 0 0 0 0 0 0 0 0 0.15 0"/>
<feBlend mode="normal" in2="BackgroundImageFix" result="effect1_dropShadow_2028_71"/>
<feBlend mode="normal" in="SourceGraphic" in2="effect1_dropShadow_2028_71" result="shape"/>
</filter>
<clipPath id="clip0_2028_71">
<rect width="72" height="72" fill="white"/>
</clipPath>
</defs>
</svg>
