<svg width="272" height="88" viewBox="0 0 272 88" fill="none" xmlns="http://www.w3.org/2000/svg">
<g filter="url(#filter0_d_2027_60)">
<path d="M118.612 39.12L116.272 35.974C115.579 36.1127 114.903 36.182 114.244 36.182C112.528 36.182 110.951 35.7833 109.512 34.986C108.091 34.1887 106.955 33.0793 106.106 31.658C105.274 30.2193 104.858 28.6073 104.858 26.822C104.858 25.0367 105.274 23.4333 106.106 22.012C106.955 20.5907 108.091 19.4813 109.512 18.684C110.951 17.8867 112.528 17.488 114.244 17.488C115.96 17.488 117.529 17.8867 118.95 18.684C120.389 19.4813 121.515 20.5907 122.33 22.012C123.162 23.4333 123.578 25.0367 123.578 26.822C123.578 28.382 123.257 29.812 122.616 31.112C121.992 32.3947 121.117 33.4607 119.99 34.31L123.994 39.12H118.612ZM109.408 26.822C109.408 28.434 109.841 29.7253 110.708 30.696C111.592 31.6493 112.771 32.126 114.244 32.126C115.7 32.126 116.861 31.6407 117.728 30.67C118.612 29.6993 119.054 28.4167 119.054 26.822C119.054 25.21 118.612 23.9273 117.728 22.974C116.861 22.0033 115.7 21.518 114.244 21.518C112.771 21.518 111.592 21.9947 110.708 22.948C109.841 23.9013 109.408 25.1927 109.408 26.822ZM130.47 17.748V28.668C130.47 29.76 130.739 30.6007 131.276 31.19C131.814 31.7793 132.602 32.074 133.642 32.074C134.682 32.074 135.48 31.7793 136.034 31.19C136.589 30.6007 136.866 29.76 136.866 28.668V17.748H141.312V28.642C141.312 30.2713 140.966 31.6493 140.272 32.776C139.579 33.9027 138.643 34.752 137.464 35.324C136.303 35.896 135.003 36.182 133.564 36.182C132.126 36.182 130.834 35.9047 129.69 35.35C128.564 34.778 127.671 33.9287 127.012 32.802C126.354 31.658 126.024 30.2713 126.024 28.642V17.748H130.47ZM155.796 32.776H148.984L147.892 36H143.238L149.842 17.748H154.99L161.594 36H156.888L155.796 32.776ZM154.652 29.344L152.39 22.662L150.154 29.344H154.652ZM172.912 36L169.116 29.11H168.05V36H163.604V17.748H171.066C172.505 17.748 173.727 17.9993 174.732 18.502C175.755 19.0047 176.518 19.698 177.02 20.582C177.523 21.4487 177.774 22.4193 177.774 23.494C177.774 24.7073 177.428 25.7907 176.734 26.744C176.058 27.6973 175.053 28.3733 173.718 28.772L177.93 36H172.912ZM168.05 25.964H170.806C171.621 25.964 172.228 25.7647 172.626 25.366C173.042 24.9673 173.25 24.404 173.25 23.676C173.25 22.9827 173.042 22.4367 172.626 22.038C172.228 21.6393 171.621 21.44 170.806 21.44H168.05V25.964ZM193.695 17.748V21.31H188.859V36H184.413V21.31H179.577V17.748H193.695ZM204.558 36.182C202.842 36.182 201.265 35.7833 199.826 34.986C198.405 34.1887 197.27 33.0793 196.42 31.658C195.588 30.2193 195.172 28.6073 195.172 26.822C195.172 25.0367 195.588 23.4333 196.42 22.012C197.27 20.5907 198.405 19.4813 199.826 18.684C201.265 17.8867 202.842 17.488 204.558 17.488C206.274 17.488 207.843 17.8867 209.264 18.684C210.703 19.4813 211.83 20.5907 212.644 22.012C213.476 23.4333 213.892 25.0367 213.892 26.822C213.892 28.6073 213.476 30.2193 212.644 31.658C211.812 33.0793 210.686 34.1887 209.264 34.986C207.843 35.7833 206.274 36.182 204.558 36.182ZM204.558 32.126C206.014 32.126 207.176 31.6407 208.042 30.67C208.926 29.6993 209.368 28.4167 209.368 26.822C209.368 25.21 208.926 23.9273 208.042 22.974C207.176 22.0033 206.014 21.518 204.558 21.518C203.085 21.518 201.906 21.9947 201.022 22.948C200.156 23.9013 199.722 25.1927 199.722 26.822C199.722 28.434 200.156 29.7253 201.022 30.696C201.906 31.6493 203.085 32.126 204.558 32.126ZM112.45 49.748C114.374 49.748 116.055 50.1293 117.494 50.892C118.933 51.6547 120.042 52.7293 120.822 54.116C121.619 55.4853 122.018 57.0713 122.018 58.874C122.018 60.6593 121.619 62.2453 120.822 63.632C120.042 65.0187 118.924 66.0933 117.468 66.856C116.029 67.6187 114.357 68 112.45 68H105.612V49.748H112.45ZM112.164 64.152C113.845 64.152 115.154 63.6927 116.09 62.774C117.026 61.8553 117.494 60.5553 117.494 58.874C117.494 57.1927 117.026 55.884 116.09 54.948C115.154 54.012 113.845 53.544 112.164 53.544H110.058V64.152H112.164ZM133.135 68.182C131.419 68.182 129.841 67.7833 128.403 66.986C126.981 66.1887 125.846 65.0793 124.997 63.658C124.165 62.2193 123.749 60.6073 123.749 58.822C123.749 57.0367 124.165 55.4333 124.997 54.012C125.846 52.5907 126.981 51.4813 128.403 50.684C129.841 49.8867 131.419 49.488 133.135 49.488C134.851 49.488 136.419 49.8867 137.841 50.684C139.279 51.4813 140.406 52.5907 141.221 54.012C142.053 55.4333 142.469 57.0367 142.469 58.822C142.469 60.6073 142.053 62.2193 141.221 63.658C140.389 65.0793 139.262 66.1887 137.841 66.986C136.419 67.7833 134.851 68.182 133.135 68.182ZM133.135 64.126C134.591 64.126 135.752 63.6407 136.619 62.67C137.503 61.6993 137.945 60.4167 137.945 58.822C137.945 57.21 137.503 55.9273 136.619 54.974C135.752 54.0033 134.591 53.518 133.135 53.518C131.661 53.518 130.483 53.9947 129.599 54.948C128.732 55.9013 128.299 57.1927 128.299 58.822C128.299 60.434 128.732 61.7253 129.599 62.696C130.483 63.6493 131.661 64.126 133.135 64.126ZM167.586 49.748L161.112 68H155.548L149.074 49.748H153.806L158.33 63.528L162.88 49.748H167.586ZM173.89 53.31V57.002H179.844V60.434H173.89V64.438H180.624V68H169.444V49.748H180.624V53.31H173.89ZM195.626 55.52C195.297 54.9133 194.82 54.454 194.196 54.142C193.59 53.8127 192.87 53.648 192.038 53.648C190.6 53.648 189.447 54.1247 188.58 55.078C187.714 56.014 187.28 57.2707 187.28 58.848C187.28 60.5293 187.731 61.8467 188.632 62.8C189.551 63.736 190.808 64.204 192.402 64.204C193.494 64.204 194.413 63.9267 195.158 63.372C195.921 62.8173 196.476 62.02 196.822 60.98H191.18V57.704H200.852V61.838C200.523 62.9473 199.96 63.9787 199.162 64.932C198.382 65.8853 197.386 66.6567 196.172 67.246C194.959 67.8353 193.59 68.13 192.064 68.13C190.262 68.13 188.65 67.74 187.228 66.96C185.824 66.1627 184.724 65.062 183.926 63.658C183.146 62.254 182.756 60.6507 182.756 58.848C182.756 57.0453 183.146 55.442 183.926 54.038C184.724 52.6167 185.824 51.516 187.228 50.736C188.632 49.9387 190.236 49.54 192.038 49.54C194.222 49.54 196.06 50.0687 197.55 51.126C199.058 52.1833 200.055 53.648 200.54 55.52H195.626ZM207.761 53.31V57.002H213.715V60.434H207.761V64.438H214.495V68H203.315V49.748H214.495V53.31H207.761ZM230.512 49.748V53.31H225.676V68H221.23V53.31H216.394V49.748H230.512ZM244.105 64.776H237.293L236.201 68H231.547L238.151 49.748H243.299L249.903 68H245.197L244.105 64.776ZM242.961 61.344L240.699 54.662L238.463 61.344H242.961ZM256.359 64.568H262.183V68H251.913V49.748H256.359V64.568Z" fill="white"/>
</g>
<g clip-path="url(#clip0_2027_60)" filter="url(#filter1_d_2027_60)">
<g filter="url(#filter2_d_2027_60)">
<path d="M77.5324 29.1031L76.109 25.6618C75.3508 23.828 73.8398 22.403 72.007 21.7231V17.0159C72.007 14.8911 70.4698 11.8693 63.147 9.53903C58.0015 7.90175 51.1908 7 43.9698 7C36.7487 7 29.9381 7.90175 24.7925 9.53919C17.4697 11.8695 15.9325 14.8913 15.9325 17.0159V21.2848H13.4519C12.3712 21.2848 11.3674 21.8212 10.7669 22.7197C10.1663 23.6182 10.0544 24.7509 10.4676 25.7496L11.8917 29.1908C12.6573 31.041 14.1353 32.4347 15.9329 33.1118V55.1154C15.9329 57.2402 17.47 60.262 24.7928 62.5921C29.9384 64.2295 36.7491 65.1313 43.9701 65.1313C51.1911 65.1313 58.0019 64.2295 63.1473 62.5921C70.4701 60.262 72.0073 57.2402 72.0073 55.1154V33.5674H74.5482C75.6292 33.5674 76.6332 33.0311 77.2336 32.1329C77.8339 31.2345 77.9455 30.1019 77.5324 29.1031ZM25.7656 12.5971C30.6049 11.0572 37.07 10.2091 43.9698 10.2091C50.8697 10.2091 57.3345 11.0572 62.174 12.5971C67.0632 14.1529 68.7979 15.9498 68.7979 17.0159C68.7979 17.5951 68.2839 18.3902 67.0319 19.2451C61.9712 16.7107 53.281 15.1567 43.9697 15.1567C34.6585 15.1567 25.9685 16.7107 20.9076 19.2451C19.6556 18.3902 19.1418 17.5951 19.1418 17.0159C19.1416 15.9498 20.8764 14.1531 25.7656 12.5971ZM63.1878 21.0921C62.8654 21.2073 62.5289 21.3217 62.1738 21.4346C57.3345 22.9747 50.8695 23.8227 43.9697 23.8227C37.0698 23.8227 30.6049 22.9745 25.7655 21.4346C25.4104 21.3217 25.0739 21.2073 24.7514 21.0921C29.5127 19.3808 36.4898 18.3658 43.9693 18.3658C51.4492 18.3658 58.4264 19.3808 63.1878 21.0921ZM14.8567 27.9638L13.4294 24.5144C13.4302 24.5084 13.4379 24.4971 13.4519 24.494H15.9325V29.4389C15.472 29.048 15.0987 28.5485 14.8567 27.9638ZM62.1738 59.5342C57.3345 61.0742 50.8695 61.9222 43.9697 61.9222C37.0698 61.9222 30.6049 61.0741 25.7655 59.5342C20.8763 57.9784 19.1415 56.1815 19.1415 55.1154V33.5674H23.8481C24.7342 33.5674 25.4526 32.849 25.4526 31.9628C25.4526 31.0766 24.7342 30.3583 23.8481 30.3583H19.1416V21.9237C20.4625 22.8185 22.2889 23.6961 24.7925 24.4927C29.9381 26.1302 36.7487 27.0319 43.9698 27.0319C51.1908 27.0319 58.0015 26.1302 63.147 24.4927C65.6506 23.6961 67.477 22.8185 68.7979 21.9237V55.1154C68.7979 56.1815 67.063 57.9784 62.1738 59.5342ZM74.5479 30.3583H72.007V25.3683C72.4992 25.7691 72.8956 26.288 73.1436 26.888L74.5705 30.3384C74.5696 30.344 74.5622 30.3551 74.5479 30.3583Z" fill="white" stroke="white" stroke-width="0.00064"/>
<path d="M33.9179 67.0712C33.617 66.7703 33.2088 66.6012 32.7833 66.6012C32.3578 66.6012 31.9496 66.7703 31.6487 67.0712L28.9573 69.7627C27.9352 70.7846 27.3723 72.1435 27.3723 73.5889C27.3723 75.0342 27.9352 76.3931 28.9571 77.4149C29.979 78.437 31.3379 78.9997 32.7833 78.9997C34.2287 78.9997 35.5875 78.4368 36.6093 77.4149C37.6314 76.3929 38.1941 75.0341 38.1941 73.5887C38.1941 72.1433 37.6312 70.7844 36.6093 69.7625L33.9179 67.0712ZM34.3403 75.1461C33.9244 75.562 33.3715 75.7909 32.7834 75.7909C32.1952 75.7909 31.6423 75.562 31.2264 75.1459C30.8105 74.73 30.5814 74.1771 30.5814 73.589C30.5814 73.0009 30.8105 72.4479 31.2264 72.032L32.7833 70.4749L34.3403 72.032C34.7562 72.4479 34.9852 73.0008 34.9852 73.589C34.9852 74.1772 34.7562 74.73 34.3403 75.1461Z" fill="white" stroke="white" stroke-width="0.00064"/>
<path d="M45.1044 67.0712C44.478 66.4446 43.4618 66.4446 42.8353 67.0712L40.1438 69.7628C39.1217 70.7847 38.5588 72.1436 38.5588 73.589C38.5588 75.0344 39.1217 76.3933 40.1436 77.4152C41.1986 78.4702 42.584 78.9974 43.9698 78.9974C45.3554 78.9974 46.7412 78.4699 47.796 77.4152C48.818 76.3933 49.3808 75.0344 49.3808 73.589C49.3808 72.1436 48.818 70.7847 47.796 69.7628L45.1044 67.0712ZM45.5267 75.1459C44.6683 76.0046 43.2712 76.0045 42.4126 75.1459C41.9967 74.73 41.7676 74.1771 41.7676 73.589C41.7676 73.0009 41.9967 72.4479 42.4126 72.032L43.9697 70.4749L45.5267 72.032C45.9428 72.4479 46.1718 73.0008 46.1718 73.589C46.1718 74.1772 45.9428 74.73 45.5267 75.1459Z" fill="white" stroke="white" stroke-width="0.00064"/>
<path d="M56.2908 67.0712C55.9898 66.7703 55.5818 66.6012 55.1562 66.6012C54.7307 66.6012 54.3227 66.7703 54.0217 67.0712L51.3302 69.7627C50.3083 70.7846 49.7454 72.1435 49.7454 73.5889C49.7454 75.0342 50.3083 76.3931 51.3302 77.4149C52.3521 78.437 53.711 78.9997 55.1564 78.9997C56.6018 78.9997 57.9606 78.4368 58.9826 77.4149C60.0045 76.3929 60.5674 75.0341 60.5674 73.5887C60.5674 72.1433 60.0045 70.7844 58.9826 69.7625L56.2908 67.0712ZM56.7131 75.1461C56.2972 75.562 55.7445 75.7909 55.1562 75.7909C54.568 75.7909 54.0152 75.562 53.5993 75.1459C53.1833 74.73 52.9543 74.1771 52.9543 73.589C52.9543 73.0009 53.1833 72.4479 53.5993 72.032L55.1562 70.4751L56.7131 72.0321C57.1292 72.448 57.3581 73.0009 57.3581 73.5892C57.3581 74.1774 57.1292 74.73 56.7131 75.1461Z" fill="white" stroke="white" stroke-width="0.00064"/>
</g>
</g>
<defs>
<filter id="filter0_d_2027_60" x="96.858" y="10.488" width="173.325" height="66.694" filterUnits="userSpaceOnUse" color-interpolation-filters="sRGB">
<feFlood flood-opacity="0" result="BackgroundImageFix"/>
<feColorMatrix in="SourceAlpha" type="matrix" values="0 0 0 0 0 0 0 0 0 0 0 0 0 0 0 0 0 0 127 0" result="hardAlpha"/>
<feOffset dy="1"/>
<feGaussianBlur stdDeviation="4"/>
<feComposite in2="hardAlpha" operator="out"/>
<feColorMatrix type="matrix" values="0 0 0 0 0 0 0 0 0 0 0 0 0 0 0 0 0 0 0.1 0"/>
<feBlend mode="normal" in2="BackgroundImageFix" result="effect1_dropShadow_2027_60"/>
<feBlend mode="normal" in="SourceGraphic" in2="effect1_dropShadow_2027_60" result="shape"/>
</filter>
<filter id="filter1_d_2027_60" x="0" y="0" width="88" height="88" filterUnits="userSpaceOnUse" color-interpolation-filters="sRGB">
<feFlood flood-opacity="0" result="BackgroundImageFix"/>
<feColorMatrix in="SourceAlpha" type="matrix" values="0 0 0 0 0 0 0 0 0 0 0 0 0 0 0 0 0 0 127 0" result="hardAlpha"/>
<feOffset dy="1"/>
<feGaussianBlur stdDeviation="4"/>
<feComposite in2="hardAlpha" operator="out"/>
<feColorMatrix type="matrix" values="0 0 0 0 0 0 0 0 0 0 0 0 0 0 0 0 0 0 0.15 0"/>
<feBlend mode="normal" in2="BackgroundImageFix" result="effect1_dropShadow_2027_60"/>
<feBlend mode="normal" in="SourceGraphic" in2="effect1_dropShadow_2027_60" result="shape"/>
</filter>
<filter id="filter2_d_2027_60" x="-251.834" y="-0.000305176" width="337.613" height="367.279" filterUnits="userSpaceOnUse" color-interpolation-filters="sRGB">
<feFlood flood-opacity="0" result="BackgroundImageFix"/>
<feColorMatrix in="SourceAlpha" type="matrix" values="0 0 0 0 0 0 0 0 0 0 0 0 0 0 0 0 0 0 127 0" result="hardAlpha"/>
<feOffset dy="1"/>
<feGaussianBlur stdDeviation="4"/>
<feComposite in2="hardAlpha" operator="out"/>
<feColorMatrix type="matrix" values="0 0 0 0 0 0 0 0 0 0 0 0 0 0 0 0 0 0 0.15 0"/>
<feBlend mode="normal" in2="BackgroundImageFix" result="effect1_dropShadow_2027_60"/>
<feBlend mode="normal" in="SourceGraphic" in2="effect1_dropShadow_2027_60" result="shape"/>
</filter>
<clipPath id="clip0_2027_60">
<rect width="72" height="72" fill="white" transform="translate(8 7)"/>
</clipPath>
</defs>
</svg>
